<?xml version="1.0" encoding="utf-8"?>
<!-- Generator: Adobe Illustrator 27.2.0, SVG Export Plug-In . SVG Version: 6.00 Build 0)  -->
<svg version="1.1" id="Layer_1" xmlns="http://www.w3.org/2000/svg" xmlns:xlink="http://www.w3.org/1999/xlink" x="0px" y="0px"
	 viewBox="0 0 1544 956" style="enable-background:new 0 0 1544 956;" xml:space="preserve">
<style type="text/css">
	.st0{fill:#6A702B;}
</style>
<g>
	<g>
		<path class="st0" d="M1563.2,225.66c-107.12-16.63-203.36-69.15-305.22-103.12c-50.73-16.92-104.26-29.85-158.04-29.45
			c-57.73,0.43-114.06,15.37-170.09,27.59c-27.99,6.1-56.17,11.71-84.74,14.28c-27.93,2.51-55.83,1.53-83.67-1.64
			c-56.27-6.41-111.24-20.81-167.05-30.03c-53.47-8.84-108.72-13.41-161.91-0.22c-56.14,13.93-101.78,51.23-155.69,70.66
			c-54.22,19.54-112.21,25.84-169.58,23.75c-25.1-0.91-50.22-2.36-74.04-10.88c-21.4-7.66-41.65-20.02-57.32-36.57
			c-7.61-8.03-13.7-17.08-18.32-27.13c-5.37-11.68-22.62-1.53-17.27,10.09c19.22,41.8,64.8,69.56,108.58,78.88
			c26.42,5.63,54.67,6.09,81.59,5.98c28.9-0.12,57.82-2.55,86.29-7.59c28.38-5.03,56.23-12.93,82.83-24.05
			c26.87-11.24,51.69-26.37,77.44-39.85c25.19-13.19,51.3-23.09,79.4-27.88c26.81-4.57,54.34-4.54,81.38-2.39
			c56.6,4.49,111.88,18.71,167.62,28.79c27.8,5.03,55.85,9.22,84.07,10.9c28.69,1.71,57.16-0.27,85.56-4.45
			c57.79-8.51,113.89-25.77,171.71-34.06c55.81-8,110.49-2.53,164.73,12.07c104.89,28.23,200.77,82.86,306.68,107.85
			c13.14,3.1,26.39,5.68,39.74,7.76C1570.47,246.9,1575.9,227.63,1563.2,225.66L1563.2,225.66z"/>
	</g>
</g>
<polygon class="st0" points="-10.83,0.27 -52.62,105.76 -31.73,156.55 66.8,204.66 159.69,204.66 252.63,191.89 406.27,121.82 
	523.92,105.21 628.92,119.7 738.46,140.27 842.06,145.21 1001.52,115.17 1081.64,103.07 1181.88,112.01 1274.58,138.84 
	1467.71,212.51 1524.27,228.33 1541.35,230.17 1560.54,201.28 1659.42,88.24 1571.5,-58.72 959.8,-113.99 -91.52,-100.17 
	-222.15,49.3 "/>
</svg>
