<?xml version="1.0" encoding="utf-8"?>
<!-- Generator: Adobe Illustrator 27.2.0, SVG Export Plug-In . SVG Version: 6.00 Build 0)  -->
<svg version="1.1" id="Layer_1" xmlns="http://www.w3.org/2000/svg" xmlns:xlink="http://www.w3.org/1999/xlink" x="0px" y="0px"
	 viewBox="0 0 1020.57 402.04" style="enable-background:new 0 0 1020.57 402.04;" xml:space="preserve">
<style type="text/css">
	.st0{fill:#6A702B;}
</style>
<g>
	<path class="st0" d="M93.49,72.01l0-21.55l152.54,0l0,251.23c0,12.64-4.31,23.34-12.93,32.1c-8.62,8.77-19.25,13.14-31.89,13.14
		l-108.16,0c-12.35,0-23.06-4.45-32.1-13.36c-9.05-8.9-13.58-19.53-13.58-31.88l0-148.24c22,0,40.64,7.71,55.93,23.12
		c15.28,15.41,22.93,34.35,22.93,56.81l0,85.54h25.85l0-246.92L93.49,72.01z"/>
	<path class="st0" d="M331.91,49.17l108.6,0c12.64,0,23.19,4.38,31.67,13.14c8.47,8.77,12.71,19.47,12.71,32.11l0,250.8l-93.94,0
		l0-137.03l-25.43,0l0,61.86c0,22.06-7.57,40.68-22.72,55.85c-15.14,15.18-33.85,22.77-56.14,22.77l0-254.68
		c0-12.35,4.45-22.9,13.36-31.67C308.92,53.56,319.55,49.17,331.91,49.17z M365.52,77.18l0,109.46h25.43l0-109.46L365.52,77.18z"/>
	<path class="st0" d="M657.62,318.5v-85.75c0-22.12,7.61-40.86,22.84-56.23c15.22-15.37,33.9-23.06,56.02-23.06l0,148.24
		c0,12.35-4.46,22.91-13.36,31.67c-8.9,8.77-19.54,13.14-31.89,13.14l-123.55,0c-12.65,0-23.27-4.31-31.89-12.93
		c-8.62-8.62-12.93-19.24-12.93-31.88l0-250.37l93.94,0l0,267.17L657.62,318.5z"/>
	<path class="st0" d="M927.94,49.82c12.64,0,23.34,4.31,32.1,12.93c8.76,8.62,13.15,19.25,13.15,31.89l0,252.95
		c-21.84,0-40.44-7.7-55.8-23.09c-15.38-15.39-23.06-34.17-23.06-56.33l0-190.34l-25.43,0l0,267.17l-93.94,0l0-295.18L927.94,49.82z
		"/>
	<path class="st0" d="M712.22,105.2c15.19-15.36,22.85-34.13,22.85-56.25v-1.01H656.2v80.33
		C678.32,128.27,696.97,120.56,712.22,105.2z"/>
</g>
</svg>
